<?xml version="1.0" encoding="UTF-8"?>
<svg version="1.1" xmlns="http://www.w3.org/2000/svg" width="1024" height="1024">
<path d="M0 0 C3.6913898 0.2595937 7.38038768 0.48115923 11.07723999 0.64782715 C25.03505909 1.28625702 25.03505909 1.28625702 30.99569702 2.85339355 C36.18037819 4.11818744 41.49642874 4.81706697 46.76473999 5.65637207 C48.83191787 5.98611643 50.89820448 6.32106626 52.96444702 6.65661621 C59.74178118 7.74901547 66.50257453 8.75147974 73.33554077 9.42419434 C73.33554077 10.08419434 73.33554077 10.74419434 73.33554077 11.42419434 C74.35518921 11.51185059 75.37483765 11.59950684 76.42538452 11.68981934 C83.0575732 12.52339699 89.46028621 14.42747468 95.89804077 16.17419434 C96.56551331 16.35338409 97.23298584 16.53257385 97.92068481 16.7171936 C106.61275275 19.05181619 115.22987099 21.51151738 123.71835327 24.51403809 C126.17694906 25.4206781 126.17694906 25.4206781 128.13705444 25.84387207 C133.41793204 27.2378361 138.456376 29.52547559 143.52304077 31.54919434 C144.50520065 31.94135132 144.50520065 31.94135132 145.50720215 32.34143066 C195.28846184 52.29627027 241.67001126 77.4411794 283.33554077 111.42419434 C284.65425171 112.48187012 284.65425171 112.48187012 285.99960327 113.56091309 C291.68730023 118.15112485 297.16605835 122.90992908 302.53475952 127.86950684 C304.64452502 129.79389545 306.77663125 131.65824898 308.94491577 133.51403809 C313.97391304 137.90160277 318.67456624 142.61304415 323.38119507 147.33947754 C324.89546657 148.85911102 326.41501507 150.37331951 327.93515015 151.88708496 C333.27886834 157.22687676 338.44835436 162.65908975 343.33554077 168.42419434 C344.18116577 169.38841309 345.02679077 170.35263184 345.89804077 171.34606934 C354.21446562 180.99525458 361.80613328 191.154409 369.33554077 201.42419434 C370.13459839 202.50724854 370.13459839 202.50724854 370.94979858 203.61218262 C386.11382737 224.24208801 398.93516246 246.58556124 410.46054077 269.42419434 C410.85152954 270.19674561 411.24251831 270.96929687 411.64535522 271.76525879 C414.33554077 277.17807126 414.33554077 277.17807126 414.33554077 279.42419434 C414.99554077 279.75419434 415.65554077 280.08419434 416.33554077 280.42419434 C417.3218689 282.31237793 417.3218689 282.31237793 418.36679077 284.82263184 C418.76011597 285.76292236 419.15344116 286.70321289 419.5586853 287.67199707 C420.19072876 289.21995972 420.19072876 289.21995972 420.83554077 290.79919434 C421.27623901 291.87048584 421.71693726 292.94177734 422.17098999 294.04553223 C441.03478341 340.32778576 454.99154293 388.10791493 460.64804077 437.86169434 C460.77028015 438.93684799 460.77028015 438.93684799 460.89498901 440.03372192 C462.83704704 457.41574278 463.57484214 474.69046131 463.58554077 492.17419434 C463.58655289 493.67686859 463.58655289 493.67686859 463.58758545 495.2098999 C463.49469092 582.88670826 439.88822746 672.15008457 387.33554077 756.42419434 C386.95736206 757.01152344 386.57918335 757.59885254 386.18954468 758.20397949 C383.96381343 761.65264 381.66789472 765.04691055 379.33554077 768.42419434 C378.91514526 769.03617676 378.49474976 769.64815918 378.06161499 770.27868652 C364.38160765 790.14095853 349.41894068 808.84763691 333.00350952 826.51013184 C330.99359054 828.70544598 329.04097195 830.92253161 327.10116577 833.17810059 C322.90666973 837.98871479 318.42026716 842.48601947 313.89804077 846.98669434 C313.09044312 847.79815918 312.28284546 848.60962402 311.45077515 849.44567871 C306.57491303 854.31368287 301.57530087 858.9521697 296.33554077 863.42419434 C295.2177068 864.39741063 294.10049285 865.37133966 292.98397827 866.34606934 C285.5361189 872.79743167 277.95490344 879.03279649 270.14071655 885.03552246 C268.93556065 885.96261562 267.7334082 886.89362597 266.53427124 887.82849121 C250.07942245 900.64771084 232.48753263 911.97065933 214.35848999 922.27233887 C212.33479941 923.42461646 210.32159368 924.59388789 208.30819702 925.76403809 C161.82668149 952.47918278 95.1813033 983.4703125 40.33554077 982.42419434 C40.33554077 983.41419434 40.33554077 984.40419434 40.33554077 985.42419434 C39.07846313 985.39917847 39.07846313 985.39917847 37.79598999 985.37365723 C28.90648748 985.27469374 20.30046309 985.90602706 11.46054077 986.86169434 C-51.9208392 993.30016358 -115.66828881 986.18116967 -176.70010376 968.26916504 C-177.96451294 967.89880127 -179.22892212 967.5284375 -180.53164673 967.14685059 C-181.64652466 966.81435303 -182.76140259 966.48185547 -183.9100647 966.13928223 C-186.67413133 965.298551 -186.67413133 965.298551 -189.66445923 965.42419434 C-189.66445923 964.76419434 -189.66445923 964.10419434 -189.66445923 963.42419434 C-190.41211548 963.30302246 -191.15977173 963.18185059 -191.93008423 963.05700684 C-193.40734985 962.80563965 -193.40734985 962.80563965 -194.91445923 962.54919434 C-195.88899048 962.38677246 -196.86352173 962.22435059 -197.86758423 962.05700684 C-200.51377741 961.45828715 -202.26596819 960.64079314 -204.66445923 959.42419434 C-206.62188601 958.59835032 -208.58630015 957.78899097 -210.55508423 956.99060059 C-211.72805054 956.51195557 -212.90101685 956.03331055 -214.10952759 955.54016113 C-215.04005447 955.16061783 -215.04005447 955.16061783 -215.98937988 954.77340698 C-234.01660906 947.40630847 -251.82660192 939.5745318 -269.15274048 930.66638184 C-271.69383706 929.33823516 -271.69383706 929.33823516 -274.66445923 928.42419434 C-275.99517913 927.586609 -277.30257812 926.71159978 -278.59414673 925.81481934 C-284.18456835 922.02462641 -289.97865196 918.61290046 -295.78945923 915.17419434 C-310.40803929 906.44987684 -324.26764222 897.19885824 -337.78604126 886.8572998 C-339.52893684 885.52758873 -341.28035444 884.21025382 -343.03555298 882.89685059 C-354.69773446 874.08954829 -365.60806776 864.44387618 -376.28433228 854.47399902 C-379.1179119 851.8303376 -381.99169652 849.26996287 -384.97695923 846.79919434 C-385.86383423 846.01544434 -386.75070923 845.23169434 -387.66445923 844.42419434 C-387.66445923 843.76419434 -387.66445923 843.10419434 -387.66445923 842.42419434 C-388.32445923 842.42419434 -388.98445923 842.42419434 -389.66445923 842.42419434 C-389.66445923 841.76419434 -389.66445923 841.10419434 -389.66445923 840.42419434 C-390.65445923 840.09419434 -391.64445923 839.76419434 -392.66445923 839.42419434 C-394.03164673 838.06872559 -394.03164673 838.06872559 -395.53945923 836.23669434 C-398.38605373 832.87144066 -401.32362793 829.62490467 -404.34268188 826.41564941 C-410.41045811 819.96459927 -416.13129977 813.34293768 -421.66445923 806.42419434 C-422.64574145 805.23261325 -423.62893968 804.04260837 -424.61367798 802.85388184 C-432.51796859 793.28120318 -439.95890872 783.4185126 -447.24502563 773.36853027 C-448.25038241 771.99139553 -449.2874152 770.63713118 -450.34561157 769.3001709 C-451.66445923 767.42419434 -451.66445923 767.42419434 -451.66445923 765.42419434 C-452.32445923 765.09419434 -452.98445923 764.76419434 -453.66445923 764.42419434 C-456.05088011 761.53708025 -457.87919196 758.42481194 -459.72695923 755.17419434 C-462.13395804 750.99228674 -464.6212882 746.89244301 -467.22085571 742.82800293 C-472.0508805 735.26706618 -476.36823203 727.53844127 -480.44107056 719.54309082 C-480.83447632 718.77424561 -481.22788208 718.00540039 -481.63320923 717.21325684 C-481.97803345 716.52957031 -482.32285767 715.84588379 -482.6781311 715.14147949 C-483.66585181 713.24880679 -483.66585181 713.24880679 -485.66445923 711.42419434 C-486.32120363 709.62678862 -486.97520662 707.82834706 -487.61758423 706.02575684 C-488.92768479 702.77005917 -490.50454935 699.67010659 -492.10195923 696.54919434 C-499.66445923 681.71047194 -499.66445923 681.71047194 -499.66445923 677.42419434 C-500.32445923 677.09419434 -500.98445923 676.76419434 -501.66445923 676.42419434 C-502.39901387 674.37562699 -503.11881445 672.32082378 -503.77236938 670.24499512 C-504.76847216 667.09530397 -505.84171741 663.97814023 -506.92617798 660.85778809 C-507.3225647 659.71374512 -507.71895142 658.56970215 -508.12734985 657.39099121 C-508.53147095 656.22632324 -508.93559204 655.06165527 -509.35195923 653.86169434 C-509.97554321 652.06248535 -509.97554321 652.06248535 -510.61172485 650.22692871 C-511.62883073 647.29251982 -512.64642009 644.35827955 -513.66445923 641.42419434 C-514.32445923 641.42419434 -514.98445923 641.42419434 -515.66445923 641.42419434 C-515.72504517 640.82091309 -515.7856311 640.21763184 -515.84805298 639.59606934 C-515.97373657 638.39724121 -515.97373657 638.39724121 -516.10195923 637.17419434 C-516.18317017 636.38528809 -516.2643811 635.59638184 -516.34805298 634.78356934 C-516.80701758 631.36116665 -517.7236929 628.22907167 -518.72695923 624.92419434 C-519.66445923 621.42419434 -519.66445923 621.42419434 -519.66445923 617.42419434 C-520.98445923 617.09419434 -522.30445923 616.76419434 -523.66445923 616.42419434 C-523.47883423 615.45481934 -523.29320923 614.48544434 -523.10195923 613.48669434 C-522.47804607 609.12821528 -522.60674439 604.71023883 -523.66445923 600.42419434 C-524.32445923 600.09419434 -524.98445923 599.76419434 -525.66445923 599.42419434 C-525.92747147 597.65825503 -526.17134605 595.88849117 -526.35147095 594.11218262 C-526.73412564 590.82588923 -527.29133537 587.58651865 -527.85586548 584.32653809 C-528.1894104 582.38230957 -528.1894104 582.38230957 -528.5296936 580.39880371 C-528.87825667 578.3754676 -529.22857314 576.35248982 -529.5831604 574.3302002 C-529.9293229 572.35072561 -530.26767131 570.36988962 -530.60586548 568.38903809 C-530.91052734 566.63514771 -530.91052734 566.63514771 -531.22134399 564.8458252 C-531.67626454 561.33303655 -531.74083931 557.96219854 -531.66445923 554.42419434 C-532.32445923 554.42419434 -532.98445923 554.42419434 -533.66445923 554.42419434 C-533.68951538 553.86659424 -533.71457153 553.30899414 -533.74038696 552.73449707 C-533.85927099 550.1101524 -533.98061792 547.4859265 -534.10195923 544.86169434 C-534.14127563 543.98577637 -534.18059204 543.1098584 -534.22109985 542.20739746 C-534.40644333 538.2296414 -534.59741833 534.25911682 -534.91616821 530.28942871 C-535.83156286 518.72897308 -535.85056213 507.18589139 -535.84976196 495.59460449 C-535.85193328 492.09105998 -535.87010553 488.58783909 -535.8890686 485.08435059 C-535.92163887 471.50815619 -535.35121946 458.12397899 -534.09536743 444.60534668 C-533.72120054 440.52819014 -533.64965028 436.51969202 -533.66445923 432.42419434 C-533.22934904 430.37624784 -532.78688558 428.32942733 -532.29727173 426.29382324 C-531.47849116 422.58088078 -530.84915658 418.84186171 -530.22695923 415.09216309 C-530.10030884 414.32937042 -529.97365845 413.56657776 -529.84317017 412.78067017 C-529.44841192 410.39131305 -529.05635334 408.00152271 -528.66445923 405.61169434 C-528.4016678 404.01985957 -528.1386485 402.42806241 -527.87539673 400.83630371 C-527.74697388 400.05844513 -527.61855103 399.28058655 -527.48623657 398.47915649 C-527.23214229 396.94214035 -526.97727249 395.40525219 -526.72158813 393.86849976 C-526.15692116 390.46488006 -525.6104806 387.06194711 -525.10195923 383.64929199 C-524.93695923 382.56051758 -524.77195923 381.47174316 -524.60195923 380.34997559 C-524.39893188 378.94292358 -524.39893188 378.94292358 -524.19180298 377.50744629 C-524.01777954 376.81997314 -523.8437561 376.1325 -523.66445923 375.42419434 C-523.00445923 375.09419434 -522.34445923 374.76419434 -521.66445923 374.42419434 C-521.43393353 372.59956166 -521.21184046 370.77361596 -521.02285767 368.94421387 C-520.29150474 363.80182634 -518.72393651 358.84437586 -517.28945923 353.86169434 C-516.94584351 352.66036865 -516.60222778 351.45904297 -516.24819946 350.22131348 C-512.28392638 336.67344723 -507.5143581 323.41656208 -502.66079712 310.1661377 C-501.96875138 308.26161289 -501.30525109 306.34656991 -500.66445923 304.42419434 C-498.78889281 300.23603631 -496.8178146 296.09223324 -494.8553772 291.94421387 C-494.01337386 290.16250856 -493.17412262 288.37950144 -492.33682251 286.59558105 C-485.90444601 272.90491534 -479.18813668 259.46961148 -471.71084595 246.31750488 C-470.98198761 244.99872364 -470.28603702 243.66144396 -469.61636353 242.31164551 C-468.47588965 240.05029553 -467.0843454 238.10280733 -465.60195923 236.04919434 C-462.7273151 231.99855943 -460.00769022 227.87021434 -457.35195923 223.67419434 C-453.7957682 218.06910258 -450.02462937 212.65684368 -446.13418579 207.27966309 C-442.69302632 202.50952292 -439.30082388 197.69692364 -436.66445923 192.42419434 C-436.00445923 192.75419434 -435.34445923 193.08419434 -434.66445923 193.42419434 C-434.43242798 192.89438965 -434.20039673 192.36458496 -433.96133423 191.81872559 C-432.25521359 188.6685691 -430.12406085 185.91727593 -427.91445923 183.11169434 C-427.43782837 182.5050293 -426.96119751 181.89836426 -426.47012329 181.27331543 C-421.63232131 175.21908983 -416.37163284 169.59692545 -411.02383423 163.99450684 C-408.69997414 161.55474097 -406.46293848 159.0613206 -404.26211548 156.51013184 C-400.46520805 152.13835169 -396.44336307 148.01939002 -392.35195923 143.92419434 C-391.63717407 143.19716309 -390.92238892 142.47013184 -390.1859436 141.72106934 C-389.50209595 141.03528809 -388.81824829 140.34950684 -388.11367798 139.64294434 C-387.49839233 139.0235498 -386.88310669 138.40415527 -386.24917603 137.76599121 C-384.66445923 136.42419434 -384.66445923 136.42419434 -382.66445923 136.42419434 C-382.66445923 135.76419434 -382.66445923 135.10419434 -382.66445923 134.42419434 C-381.40664673 133.11950684 -381.40664673 133.11950684 -379.53945923 131.54919434 C-378.81113892 130.93044434 -378.0828186 130.31169434 -377.33242798 129.67419434 C-376.45199829 128.93169434 -375.5715686 128.18919434 -374.66445923 127.42419434 C-373.57612573 126.48796447 -372.4889584 125.55037788 -371.40274048 124.61169434 C-344.85111302 101.68478653 -316.82356336 81.74550947 -286.24209595 64.49353027 C-285.14268677 63.86994629 -284.04327759 63.2463623 -282.91055298 62.60388184 C-281.90564819 62.04168945 -280.90074341 61.47949707 -279.86538696 60.90026855 C-279.13908081 60.41316406 -278.41277466 59.92605957 -277.66445923 59.42419434 C-277.66445923 58.76419434 -277.66445923 58.10419434 -277.66445923 57.42419434 C-276.80884399 57.31929687 -275.95322876 57.21439941 -275.07168579 57.10632324 C-271.38748233 56.36874339 -268.52898122 55.14333022 -265.14883423 53.51013184 C-264.53938965 53.21930725 -263.92994507 52.92848267 -263.30203247 52.62884521 C-262.00499713 52.00990486 -260.70937003 51.38800595 -259.41506958 50.7633667 C-250.03321437 46.24188379 -240.64117184 41.78755306 -230.91445923 38.04919434 C-230.18968384 37.76995117 -229.46490845 37.49070801 -228.71817017 37.20300293 C-223.9676358 35.42419434 -223.9676358 35.42419434 -221.66445923 35.42419434 C-221.33445923 34.76419434 -221.00445923 34.10419434 -220.66445923 33.42419434 C-218.74185181 32.69348145 -218.74185181 32.69348145 -216.24649048 32.01403809 C-210.88835644 30.49715386 -205.62667917 28.76930434 -200.35195923 26.98669434 C-177.78633836 19.42419434 -177.78633836 19.42419434 -173.66445923 19.42419434 C-173.66445923 18.76419434 -173.66445923 18.10419434 -173.66445923 17.42419434 C-172.0015686 17.25597168 -172.0015686 17.25597168 -170.30508423 17.08435059 C-165.22328413 16.44968524 -160.35791435 15.17090315 -155.41445923 13.86169434 C-153.66042049 13.39761557 -151.90524429 12.93780973 -150.14883423 12.48278809 C-149.38280884 12.27968018 -148.61678345 12.07657227 -147.82754517 11.86730957 C-145.66445923 11.42419434 -145.66445923 11.42419434 -141.66445923 11.42419434 C-141.66445923 10.76419434 -141.66445923 10.10419434 -141.66445923 9.42419434 C-140.49012329 9.31075684 -139.31578735 9.19731934 -138.10586548 9.08044434 C-131.22718384 8.31599684 -124.42133175 7.09133223 -117.60195923 5.92419434 C-102.87027162 3.40959524 -102.87027162 3.40959524 -97.85586548 2.83044434 C-94.77435023 2.61692693 -94.77435023 2.61692693 -92.66445923 1.42419434 C-62.08873126 -2.41150627 -30.66954599 -2.16826558 0 0 Z M-521.66445923 613.42419434 C-520.66445923 616.42419434 -520.66445923 616.42419434 -520.66445923 616.42419434 Z M34.33554077 983.42419434 C34.33554077 983.75419434 34.33554077 984.08419434 34.33554077 984.42419434 C35.98554077 984.42419434 37.63554077 984.42419434 39.33554077 984.42419434 C39.33554077 984.09419434 39.33554077 983.76419434 39.33554077 983.42419434 C37.68554077 983.42419434 36.03554077 983.42419434 34.33554077 983.42419434 Z " fill="#FECC6D" transform="translate(549.6644592285156,14.5758056640625)"/>
<path d="M0 0 C7.88753469 3.706191 11.83158128 8.91048306 15.296875 16.75 C25.04328883 45.41592304 7.11890624 89.78755599 0.09375 118.09375 C-0.20505066 119.30025208 -0.20505066 119.30025208 -0.5098877 120.53112793 C-7.25658661 147.73901142 -14.51796772 174.81594135 -21.71875 201.90625 C-22.06398901 203.2051095 -22.06398901 203.2051095 -22.41620255 204.53020859 C-27.521584 223.73389535 -32.63682128 242.93427434 -37.90625 262.09375 C-37.18260254 262.07803955 -36.45895508 262.0623291 -35.71337891 262.04614258 C4.52957589 261.29027158 4.52957589 261.29027158 15.09375 270.09375 C17.54755136 273.77445204 17.91027381 276.81949782 17.09375 281.09375 C14.96294617 283.95511514 13.48529434 285.70735404 9.99853516 286.67553711 C5.94482593 287.25916494 1.88889194 287.55998661 -2.1953125 287.84765625 C-3.09438324 287.91282944 -3.99345398 287.97800262 -4.91976929 288.04515076 C-6.82091019 288.18200812 -8.72216941 288.31723041 -10.62353516 288.45092773 C-13.50073015 288.6540949 -16.37730526 288.86478043 -19.25390625 289.07617188 C-37.11294408 290.36229741 -37.11294408 290.36229741 -45.90625 290.09375 C-46.11378906 291.06755615 -46.32132813 292.0413623 -46.53515625 293.04467773 C-49.51343532 306.82119757 -52.95464051 320.47538986 -56.39897156 334.14145279 C-58.01671406 340.56676639 -59.62451827 346.99458221 -61.234375 353.421875 C-61.51626049 354.54689895 -61.51626049 354.54689895 -61.80384064 355.69465065 C-87.76787674 458.93328717 -87.76787674 458.93328717 -111.96875 562.59375 C-112.16148499 563.44916382 -112.35421997 564.30457764 -112.55279541 565.18591309 C-116.24432648 581.63915219 -119.57339941 597.7430553 -118.70117188 614.67382812 C-118.48914891 621.79469707 -120.22152471 625.1789054 -125.09375 630.46875 C-129.15458977 632.81501298 -132.3270364 632.91379934 -136.90625 632.09375 C-146.36406579 628.96039729 -152.04176713 622.90773134 -156.65625 614.28125 C-172.94840416 579.49964456 -159.12130692 532.07323777 -151.90625 496.09375 C-151.72618408 495.19448792 -151.54611816 494.29522583 -151.3605957 493.36871338 C-138.94581858 431.58142712 -124.20385543 370.22334315 -108.90625 309.09375 C-108.51820006 307.54151118 -108.13017668 305.98926572 -107.7421875 304.43701172 C-107.46632813 303.33373535 -107.19046875 302.23045898 -106.90625 301.09375 C-146.10994127 307.82669327 -185.18449485 318.05897441 -223.19189453 329.71118164 C-224.85962142 330.22177535 -226.52742666 330.73211325 -228.1953125 331.2421875 C-229.41385422 331.61545418 -229.41385422 331.61545418 -230.65701294 331.9962616 C-235.408436 333.42542403 -240.15733932 334.65135157 -245.00779724 335.69538879 C-247.98246782 336.34283302 -250.93571599 337.0674328 -253.89028931 337.80050659 C-255.24371417 338.1135508 -256.60650181 338.38922735 -257.97616577 338.62112427 C-262.62155504 339.41337538 -266.69191909 340.54094481 -269.90625 344.09375 C-273.51549726 350.76052157 -275.15151345 358.30106752 -276.99777222 365.6020813 C-278.4433245 371.15795702 -280.19870336 376.61125231 -281.921875 382.0859375 C-282.61469779 384.34394393 -283.30491075 386.60275258 -283.99267578 388.86230469 C-284.34428772 390.01678101 -284.69589966 391.17125732 -285.0581665 392.36071777 C-285.42053406 393.55136841 -285.78290161 394.74201904 -286.15625 395.96875 C-286.5355365 397.21354126 -286.914823 398.45833252 -287.30560303 399.74084473 C-296.97613442 431.48408398 -306.49017526 463.27415741 -315.90625 495.09375 C-316.10047295 495.74992058 -316.29469589 496.40609116 -316.49480438 497.08214569 C-331.04329845 544.35547894 -331.04329845 544.35547894 -341.57910156 592.61962891 C-342.51536972 598.10977001 -343.71100196 602.15676643 -348.03125 605.96875 C-352.98139121 607.90576178 -357.30904083 607.0814832 -362.20703125 605.21875 C-371.07625834 600.80711373 -376.81179236 593.75275429 -380.21484375 584.55078125 C-396.38307143 527.09419813 -353.81711953 433.37804 -338.23461914 376.8347168 C-338.00086075 375.98628708 -337.76710236 375.13785736 -337.52626038 374.26371765 C-337.03011408 372.52726057 -336.47734057 370.8070217 -335.90625 369.09375 C-336.48310547 369.23377441 -337.05996094 369.37379883 -337.65429688 369.51806641 C-344.61375171 371.07362835 -351.28902606 371.46012306 -358.40625 371.46875 C-359.46972656 371.49324219 -360.53320312 371.51773437 -361.62890625 371.54296875 C-370.14245443 371.57430696 -377.25534468 370.1361711 -383.90625 364.59375 C-387.22353903 360.44713872 -388.40644448 357.78650106 -388.203125 352.296875 C-387.14223907 344.42398469 -382.93162797 339.28218608 -376.97265625 334.27734375 C-371.02768403 330.04391767 -364.5536411 327.05784622 -357.90625 324.09375 C-356.64433838 323.52841553 -356.64433838 323.52841553 -355.35693359 322.95166016 C-326.44920746 310.09375 -326.44920746 310.09375 -320.90625 310.09375 C-320.78536011 308.93129761 -320.66447021 307.76884521 -320.53991699 306.57116699 C-320.01545892 302.40359273 -319.00446024 298.46345048 -317.76757812 294.45507812 C-317.55055709 293.73319431 -317.33353605 293.0113105 -317.10993862 292.26755142 C-316.39192485 289.88479871 -315.66475936 287.50494547 -314.9375 285.125 C-314.42412613 283.42800589 -313.91132669 281.7308379 -313.39906311 280.0335083 C-312.02651931 275.49155548 -310.64604437 270.95205014 -309.26390457 266.41300964 C-307.8290118 261.69626771 -306.40106945 256.97742259 -304.97241211 252.25878906 C-302.68708833 244.71368029 -300.39754373 237.16986514 -298.10498047 229.62695312 C-295.52609746 221.14122118 -292.95792404 212.65231278 -290.39742851 204.16101646 C-283.50846268 181.31754199 -276.58055619 158.49829193 -269.125 135.83251953 C-267.75956411 131.64376047 -266.42520551 127.44574269 -265.09375 123.24609375 C-239.94467693 44.12897468 -239.94467693 44.12897468 -225.65625 31.03125 C-218.92803325 28.73753974 -213.02598122 29.29088558 -206.53979492 32.19848633 C-199.12257672 35.84494552 -190.79191314 40.90355902 -187.90625 49.09375 C-186.8883409 64.07155531 -192.7111776 79.83404064 -196.875 94.015625 C-197.26707306 95.35788643 -197.65911621 96.7001566 -198.0511322 98.04243469 C-202.81402191 114.30860131 -207.75325742 130.52205748 -212.69324493 146.73510742 C-213.75055619 150.20647767 -214.80622574 153.67834645 -215.86198044 157.15019035 C-222.35565997 178.50264752 -228.89275246 199.84122486 -235.48001099 221.16500854 C-242.45643799 243.75795329 -249.20444254 266.41803213 -255.90625 289.09375 C-255.31063766 288.97592667 -254.71502533 288.85810333 -254.10136414 288.73670959 C-202.31852325 278.51461291 -150.37970951 269.96138924 -97.90625 264.09375 C-97.60895996 263.03752441 -97.60895996 263.03752441 -97.30566406 261.95996094 C-91.23332494 240.44173821 -84.96632088 218.98073901 -78.65625 197.53125 C-78.44566452 196.81540112 -78.23507904 196.09955223 -78.01811218 195.36201096 C-71.32807527 172.62457163 -64.58852695 149.90197534 -57.82824707 127.18533325 C-56.41560386 122.43817054 -55.00405194 117.69068381 -53.59277344 112.94311523 C-53.36514942 112.1774269 -53.13752541 111.41173857 -52.90300369 110.62284756 C-52.00611541 107.60585744 -51.10923731 104.5888643 -50.21250153 101.57182884 C-48.10287574 94.47420467 -45.99222028 87.37691272 -43.87109375 80.28271484 C-33.00582916 46.76807992 -33.00582916 46.76807992 -27.21459961 12.22192383 C-26.53753732 7.54896105 -23.6873358 4.78184939 -20.28125 1.78125 C-14.41945325 -2.38371085 -6.74682641 -2.1038491 0 0 Z " fill="#2A1F0A" transform="translate(694.90625,188.90625)"/>
<path d="M0 0 C0.66 0 1.32 0 2 0 C27.01055281 50.02110562 -2.5357603 155.5762114 -19.14453125 205.640625 C-32.06447099 244.07832672 -48.88660329 280.94740861 -71 315 C-71.56726807 315.88099365 -71.56726807 315.88099365 -72.14599609 316.77978516 C-74.37172734 320.22844566 -76.66764605 323.62271622 -79 327 C-79.63059326 327.91797363 -79.63059326 327.91797363 -80.27392578 328.85449219 C-93.95393312 348.7167642 -108.91660009 367.42344258 -125.33203125 385.0859375 C-127.34195024 387.28125165 -129.29456882 389.49833727 -131.234375 391.75390625 C-135.42887104 396.56452045 -139.91527361 401.06182513 -144.4375 405.5625 C-145.24509766 406.37396484 -146.05269531 407.18542969 -146.88476562 408.02148438 C-151.76062774 412.88948854 -156.7602399 417.52797536 -162 422 C-163.11783397 422.9732163 -164.23504792 423.94714532 -165.3515625 424.921875 C-172.79942187 431.37323733 -180.38063733 437.60860216 -188.19482422 443.61132812 C-189.39998012 444.53842128 -190.60213257 445.46943163 -191.80126953 446.40429688 C-208.25611832 459.2235165 -225.84800814 470.54646499 -243.97705078 480.84814453 C-246.00074136 482.00042213 -248.01394709 483.16969356 -250.02734375 484.33984375 C-296.50885928 511.05498844 -363.15423747 542.04611817 -418 541 C-418 541.99 -418 542.98 -418 544 C-418.83805176 543.98332275 -419.67610352 543.96664551 -420.53955078 543.94946289 C-429.42897514 543.85050028 -438.0351802 544.48118415 -446.875 545.4375 C-468.37144062 547.63297378 -490.45851195 549.30295514 -512 547 C-512 546.67 -512 546.34 -512 546 C-510.98969727 545.96241577 -510.98969727 545.96241577 -509.95898438 545.92407227 C-492.17007058 545.2561945 -492.17007058 545.2561945 -474.40234375 544.18359375 C-471.98088257 544.05292937 -469.55379026 544.01313409 -467.12890625 544.03515625 C-462.69958378 544.0618036 -458.39024022 543.5403228 -454 543 C-452.5212085 542.84151156 -451.04203354 542.68656098 -449.5625 542.53515625 C-428.65959204 540.57539051 -428.65959204 540.57539051 -408 537 C-406.33336681 536.6664993 -404.66669605 536.33318637 -403 536 C-388.13763926 532.91321415 -373.38377224 529.46620688 -358.68212891 525.68896484 C-356.21004485 525.05395472 -353.73606007 524.42692162 -351.26171875 523.80078125 C-349.90343418 523.4513425 -348.54534346 523.10114889 -347.1875 522.75 C-346.04667969 522.45609375 -344.90585937 522.1621875 -343.73046875 521.859375 C-340.82375412 521.08423159 -340.82375412 521.08423159 -338 519 C-336.09509876 518.52844866 -334.18941248 518.05970278 -332.27880859 517.61181641 C-328.15278972 516.50405947 -324.25554887 514.81586974 -320.3125 513.1875 C-318.53804439 512.46544758 -316.76330462 511.74409308 -314.98828125 511.0234375 C-314.13314941 510.67506836 -313.27801758 510.32669922 -312.39697266 509.96777344 C-309.27906631 508.70892431 -306.1434902 507.506038 -303 506.3125 C-293.17447814 502.54209644 -283.66723625 498.47298013 -274.3425293 493.59057617 C-269.31757071 491 -269.31757071 491 -266 491 C-266 490.34 -266 489.68 -266 489 C-265.08057617 488.53327881 -265.08057617 488.53327881 -264.14257812 488.05712891 C-251.9950548 481.86752512 -240.09567623 475.53500771 -228.67236328 468.08447266 C-226.19880809 466.48045336 -223.68960952 464.93397963 -221.1875 463.375 C-216.35786029 460.30891055 -211.77685749 456.95323371 -207.21484375 453.50390625 C-205 452 -205 452 -203 452 C-203 451.34 -203 450.68 -203 450 C-201.09182119 448.53777077 -199.18934573 447.19800269 -197.1875 445.875 C-195.99674328 445.06867116 -194.80665091 444.26136047 -193.6171875 443.453125 C-193.01358398 443.04513672 -192.40998047 442.63714844 -191.78808594 442.21679688 C-189.10288576 440.38951155 -186.45304979 438.51610993 -183.8125 436.625 C-182.93207031 435.99851562 -182.05164063 435.37203125 -181.14453125 434.7265625 C-178.78645515 433.00494933 -178.78645515 433.00494933 -177 430 C-176.34 430 -175.68 430 -175 430 C-175 429.34 -175 428.68 -175 428 C-173.171875 426.34375 -173.171875 426.34375 -170.75 424.5 C-169.96109375 423.8915625 -169.1721875 423.283125 -168.359375 422.65625 C-166.28862321 421.20260967 -164.2941068 420.05234257 -162 419 C-162 418.34 -162 417.68 -162 417 C-160.42578125 415.66796875 -160.42578125 415.66796875 -158.3125 414.1875 C-153.80887363 410.91285618 -150.13415525 407.40277097 -146.625 403.0625 C-144.23073597 400.11337479 -141.504133 397.77161924 -138.55078125 395.39453125 C-136.7459798 393.88740659 -136.7459798 393.88740659 -135 391 C-134.34 391 -133.68 391 -133 391 C-133 390.34 -133 389.68 -133 389 C-132.34 389 -131.68 389 -131 389 C-130.67515625 388.19755859 -130.67515625 388.19755859 -130.34375 387.37890625 C-128.51682778 384.14461662 -126.04116187 381.61327122 -123.5 378.9375 C-120.78869481 376.06155483 -118.20153517 373.30230276 -116 370 C-115.34 370 -114.68 370 -114 370 C-113.74605469 369.43667969 -113.49210937 368.87335938 -113.23046875 368.29296875 C-111.83570184 365.69383168 -110.18226789 363.59369029 -108.3125 361.3125 C-107.60609375 360.44109375 -106.8996875 359.5696875 -106.171875 358.671875 C-105.45515625 357.79015625 -104.7384375 356.9084375 -104 356 C-102.68127818 354.35914767 -101.36830905 352.71364698 -100.0625 351.0625 C-99.49660156 350.35222656 -98.93070313 349.64195312 -98.34765625 348.91015625 C-96.81937299 346.93897086 -96.81937299 346.93897086 -96 344 C-94.33906066 342.32762562 -92.67144219 340.66187742 -91 339 C-89.37425409 336.87402458 -87.82403473 334.76413917 -86.3125 332.5625 C-85.92255859 332.01529297 -85.53261719 331.46808594 -85.13085938 330.90429688 C-82.70418432 327.39909958 -81.15583633 324.09796516 -80 320 C-79.01 320 -78.02 320 -77 320 C-76.690625 319.01 -76.690625 319.01 -76.375 318 C-75.16578296 315.36170827 -74.03212318 313.67215184 -72.25 311.4375 C-69.04042117 307.29760847 -66.89117858 302.90687161 -64.62890625 298.19921875 C-62.93843771 294.87908988 -61.05289405 291.77358095 -59.0625 288.625 C-55.58649782 283.08057827 -52.58531614 277.42088304 -49.72265625 271.5390625 C-47.98943104 267.97828691 -46.18340223 264.46056439 -44.375 260.9375 C-41.1229501 254.44067548 -38.50850646 247.81129185 -36 241 C-35.2788155 239.12191535 -34.55029818 237.24662039 -33.8125 235.375 C-33.35810547 234.21097656 -33.35810547 234.21097656 -32.89453125 233.0234375 C-32 231 -32 231 -30 228 C-29.34865207 226.09359848 -28.75156549 224.16839956 -28.1875 222.234375 C-26.73433208 217.37702669 -25.20213056 212.56334901 -23.5625 207.765625 C-17.37108201 189.68150165 -17.37108201 189.68150165 -12.71875 171.15234375 C-12 168 -12 168 -10.99609375 165.59375 C-9.61287647 161.99196068 -9.13475038 158.36597441 -8.5625 154.5625 C-7.66492025 148.87763636 -6.67862945 143.24769253 -5.4375 137.625 C-3.25543417 127.68574728 -1.79620901 118.00745635 -1.24609375 107.8359375 C-1 105 -1 105 0 103 C0.22724653 100.62390134 0.40184544 98.26844696 0.53515625 95.88671875 C0.57813339 95.16249222 0.62111053 94.43826569 0.66539001 93.6920929 C0.75580656 92.14454837 0.84391631 90.59686766 0.92993164 89.04907227 C1.05831733 86.76201011 1.19750276 84.47580533 1.33789062 82.18945312 C2.51607598 62.15015702 1.9263038 42.22581361 1 22.1875 C0.90322081 20.01889913 0.80686465 17.85027935 0.7109375 15.68164062 C0.47880953 10.45419721 0.24104579 5.22703948 0 0 Z M-424 542 C-424 542.33 -424 542.66 -424 543 C-422.35 543 -420.7 543 -419 543 C-419 542.67 -419 542.34 -419 542 C-420.65 542 -422.3 542 -424 542 Z " fill="#FDBD59" transform="translate(1008,456)"/>
<path d="M0 0 C3.63 0 7.26 0 11 0 C11 0.66 11 1.32 11 2 C12.01964844 2.08765625 13.03929687 2.1753125 14.08984375 2.265625 C20.72203243 3.09920266 27.12474544 5.00328034 33.5625 6.75 C34.22997253 6.92918976 34.89744507 7.10837952 35.58514404 7.29299927 C44.27721198 9.62762185 52.89433022 12.08732304 61.3828125 15.08984375 C63.84140829 15.99648377 63.84140829 15.99648377 65.80151367 16.41967773 C71.08260462 17.81369808 76.12017809 20.10245426 81.1875 22.125 C81.83728821 22.3837793 82.48707642 22.64255859 83.15655518 22.90917969 C94.1938683 27.32047811 105.06323065 32.06351296 115.875 37 C116.57732758 37.32051331 117.27965515 37.64102661 118.00326538 37.97125244 C125.06055726 41.19908236 132.08972825 44.46533414 139 48 C139 48.66 139 49.32 139 50 C134.25 49.125 134.25 49.125 132 48 C132 47.34 132 46.68 132 46 C131.195625 45.814375 131.195625 45.814375 130.375 45.625 C125.22975955 44.27098936 120.67893042 42.38067953 115.96875 39.953125 C113.38940574 38.70439484 110.74144703 37.82243411 108 37 C108 36.34 108 35.68 108 35 C107.01 34.9175 106.02 34.835 105 34.75 C101.32181256 34.2224512 98.60487212 32.90529866 95.3515625 31.171875 C86.67206171 26.84654238 77.20980525 23.97036962 68 21 C68 20.34 68 19.68 68 19 C67.13246094 18.86464844 66.26492188 18.72929688 65.37109375 18.58984375 C55.9222496 16.93656974 46.62062512 14.2497492 37.5625 11.125 C25.30923856 7.01511555 12.6794669 4.40472648 0 2 C0 1.34 0 0.68 0 0 Z " fill="#FEC260" transform="translate(612,24)"/>
<path d="M0 0 C4.1714629 0.64496434 7.42461664 2.9353371 10.9375 5.125 C22.85297609 13.05886876 22.85297609 13.05886876 36 18 C36 18.66 36 19.32 36 20 C38.97 20.99 41.94 21.98 45 23 C45 23.66 45 24.32 45 25 C47.31 25.33 49.62 25.66 52 26 C52 26.66 52 27.32 52 28 C53.25425781 28.4021875 54.50851562 28.804375 55.80078125 29.21875 C61.36336584 31.07403365 66.76865838 33.2645895 72.1875 35.5 C73.14591797 35.89058594 74.10433594 36.28117188 75.09179688 36.68359375 C79.82968713 38.62851898 84.41808817 40.70904408 89 43 C90.50663098 43.50305722 92.02817958 43.96406897 93.5625 44.375 C97.59427996 45.52176376 101.42535115 46.93199551 105.3125 48.5 C110.84494034 50.67509166 116.31857815 52.14057321 122.125 53.3828125 C125.4796152 54.10296087 128.71464754 55.01439426 132 56 C133.31200868 56.37671536 134.62450862 56.75172412 135.9375 57.125 C136.948125 57.41375 137.95875 57.7025 139 58 C139 58.66 139 59.32 139 60 C131.92045794 59.61384316 125.58289649 57.83050281 118.85375977 55.7277832 C115.797538 54.78025421 113.22062154 54 110 54 C110 53.34 110 52.68 110 52 C108.87851562 51.81824219 108.87851562 51.81824219 107.734375 51.6328125 C106.25710938 51.38144531 106.25710938 51.38144531 104.75 51.125 C103.28820312 50.88136719 103.28820312 50.88136719 101.796875 50.6328125 C99.15068181 50.03409281 97.39849104 49.2165988 95 48 C93.04257322 47.17415598 91.07815907 46.36479663 89.109375 45.56640625 C87.93640869 45.08776123 86.76344238 44.60911621 85.55493164 44.1159668 C84.62440475 43.73642349 84.62440475 43.73642349 83.67507935 43.34921265 C65.64785017 35.98211414 47.83785731 28.15033746 30.51171875 19.2421875 C27.97062216 17.91404082 27.97062216 17.91404082 25 17 C23.72926723 16.19863699 22.48208741 15.35959587 21.25 14.5 C16.2924859 11.11838442 11.15693483 8.07777888 5.96582031 5.07226562 C1.10792719 2.21585438 1.10792719 2.21585438 0 0 Z " fill="#FDC35F" transform="translate(250,926)"/>
<path d="M0 0 C2.93290191 1.46645096 3.0475728 3.35712373 4.13671875 6.4140625 C4.54559326 7.55552734 4.95446777 8.69699219 5.37573242 9.87304688 C5.80861572 11.11119141 6.24149902 12.34933594 6.6875 13.625 C6.91031647 14.25768799 7.13313293 14.89037598 7.36270142 15.54223633 C16.71153899 42.10464044 24.03666619 69.09883863 29.375 96.75 C29.50246613 97.4097583 29.62993225 98.0695166 29.76126099 98.74926758 C33.1787298 116.56129253 33.1787298 116.56129253 33.0625 124 C33.05347656 124.763125 33.04445313 125.52625 33.03515625 126.3125 C33.02355469 126.869375 33.01195312 127.42625 33 128 C32.34 128.33 31.68 128.66 31 129 C30.69508209 126.96721392 30.39019711 124.9344229 30.08544922 122.90161133 C29.81808571 121.12011742 29.55017376 119.33870574 29.28173828 117.55737305 C28.56434093 112.79132657 27.85644282 108.02422303 27.16796875 103.25390625 C27.03495361 102.34157227 26.90193848 101.42923828 26.76489258 100.48925781 C26.50749982 98.72216063 26.25336376 96.95458563 26.00268555 95.18652344 C25.75657054 91.27002081 25.75657054 91.27002081 24 88 C23.74039884 86.68361041 23.53367007 85.35667108 23.3515625 84.02734375 C23.23296875 83.20943359 23.114375 82.39152344 22.9921875 81.54882812 C22.75131703 79.83582912 22.51420781 78.12229613 22.28125 76.40820312 C21.47238186 70.88810831 20.05914694 66.18162385 18 61 C17.66666667 58.66666667 17.33333333 56.33333333 17 54 C16.32239532 51.95501341 15.5492725 49.96670759 14.75390625 47.96484375 C13.62998619 45.03566348 12.84751205 42.01926168 12 39 C10.59839738 34.57894489 9.09623474 30.20614071 7.4375 25.875 C6.07808431 22.30208546 4.9942968 18.69310239 4 15 C3.690625 13.8553125 3.690625 13.8553125 3.375 12.6875 C3 11 3 11 3 9 C2.34 9 1.68 9 1 9 C0.67 6.03 0.34 3.06 0 0 Z " fill="#FEBD5B" transform="translate(976,323)"/>
<path d="M0 0 C4.4846526 4.08438306 7.51810622 8.60129281 10.6875 13.75 C11.21150391 14.59272461 11.73550781 15.43544922 12.27539062 16.30371094 C13.86009442 18.86324767 15.43214722 21.43011329 17 24 C17.44037598 24.71800781 17.88075195 25.43601563 18.33447266 26.17578125 C25.83515306 38.45869586 32.4512552 51.19022228 39 64 C39.33402832 64.6388916 39.66805664 65.2777832 40.01220703 65.93603516 C42 69.77801724 42 69.77801724 42 72 C42.99 72.495 42.99 72.495 44 73 C45.97084344 76.82521854 47.53682957 80.84035965 49.1875 84.8125 C49.66380859 85.91916016 50.14011719 87.02582031 50.63085938 88.16601562 C51.07623047 89.23142578 51.52160156 90.29683594 51.98046875 91.39453125 C52.39192139 92.37268799 52.80337402 93.35084473 53.22729492 94.35864258 C54.03307448 97.11305934 54.00335577 98.35685187 53 101 C51.36169367 97.83611484 49.9776176 94.60789001 48.625 91.3125 C44.81238141 82.02692892 40.57864009 73.11939433 35.875 64.25 C34.80763449 62.23557157 33.74244883 60.21998627 32.6796875 58.203125 C32.21288574 57.32301758 31.74608398 56.44291016 31.26513672 55.53613281 C28 48.99073717 28 48.99073717 28 45 C26.515 44.505 26.515 44.505 25 44 C23.94918957 42.02622255 22.963182 40.01798921 22 38 C20.08661561 34.81246737 18.07068682 31.69096643 16.0625 28.5625 C6 12.8452454 6 12.8452454 6 10 C5.34 10 4.68 10 4 10 C3.32845067 8.71086513 2.66291141 7.41859796 2 6.125 C1.62875 5.40570313 1.2575 4.68640625 0.875 3.9453125 C0 2 0 2 0 0 Z " fill="#FDBC59" transform="translate(922,222)"/>
<path d="M0 0 C4.8858408 4.10061638 9.50869971 8.34762501 14 12.875 C14.92389526 13.80397095 14.92389526 13.80397095 15.86645508 14.75170898 C20.09359197 19.0270663 24.13772232 23.39130461 28 28 C28.76957031 28.88042969 29.53914062 29.76085937 30.33203125 30.66796875 C38.19628635 39.71458611 45.33462748 49.28050182 52.45703125 58.91625977 C53.96323798 60.95035382 55.47932151 62.97670987 57 65 C56.67 65.66 56.34 66.32 56 67 C54.62437146 65.71034824 53.29233607 64.37310707 52 63 C52 62.34 52 61.68 52 61 C51.01 60.67 50.02 60.34 49 60 C47.5 58.07421875 47.5 58.07421875 46 55.6875 C44.50111898 53.32598173 43.03131182 51.04022699 41.3125 48.83203125 C40 47 40 47 40 45 C39.34 45 38.68 45 38 45 C38 44.34 38 43.68 38 43 C37.34 43 36.68 43 36 43 C34.43331541 41.33101325 32.944819 39.58803244 31.5 37.8125 C30.7059375 36.84957031 29.911875 35.88664062 29.09375 34.89453125 C27.19242146 32.26601549 26.14060777 30.00075782 25 27 C23.6846659 26.29848848 22.34882408 25.63474075 21 25 C19.62926214 23.36395804 18.29944744 21.69321939 17 20 C16.13375 19.154375 15.2675 18.30875 14.375 17.4375 C12 15 12 15 10.9375 12.8125 C10.15438049 10.86245583 10.15438049 10.86245583 8.25 10.125 C4.92455582 8.46227791 2.25583694 5.95514639 0 3 C0 2.01 0 1.02 0 0 Z " fill="#FCBB58" transform="translate(865,155)"/>
<path d="M0 0 C4.01636131 1.23769128 7.53194124 2.69827899 11.16796875 4.80078125 C12.13412109 5.35910645 13.10027344 5.91743164 14.09570312 6.49267578 C15.11599609 7.09321777 16.13628906 7.69375977 17.1875 8.3125 C18.25033203 8.93624512 19.31316406 9.55999023 20.40820312 10.20263672 C33.50283254 17.97193377 45.90704182 26.61484051 58.125 35.6875 C58.80691406 36.19297363 59.48882813 36.69844727 60.19140625 37.21923828 C64.87710757 40.75421513 64.87710757 40.75421513 66 43 C65.01 43 64.02 43 63 43 C63 42.34 63 41.68 63 41 C62.319375 40.79375 61.63875 40.5875 60.9375 40.375 C58.2911406 39.13627858 56.86693247 38.10704949 54.75 36.1875 C52.17671272 33.88156724 49.68229993 32.17104456 46.625 30.5625 C42.37841095 28.32707238 38.81527469 25.58512909 35.0859375 22.58203125 C32.50351581 20.623453 29.96286877 19.2915069 27 18 C27 17.34 27 16.68 27 16 C25.948125 15.7525 24.89625 15.505 23.8125 15.25 C20.14069802 14.20511847 17.92062002 12.48252702 15 10 C11.42663073 7.81627434 8.01563941 5.96824338 4.125 4.4375 C3.09375 3.963125 2.0625 3.48875 1 3 C0.67 2.01 0.34 1.02 0 0 Z " fill="#FCBD5A" transform="translate(758,77)"/>
<path d="M0 0 C2 1 4 2 6 3 C6 3.66 6 4.32 6 5 C7.0828125 5.3403125 7.0828125 5.3403125 8.1875 5.6875 C11.54562879 7.25462677 13.4618052 9.328216 16 12 C16.99 12.66 17.98 13.32 19 14 C19 14.66 19 15.32 19 16 C19.55945313 16.2578125 20.11890625 16.515625 20.6953125 16.78125 C23.28595669 18.15121777 25.52068516 19.75394279 27.875 21.5 C33.9901791 25.9986164 40.15519422 30.42212376 46.34277344 34.8203125 C47.90017677 35.92894139 49.45411641 37.04243151 51.0078125 38.15625 C51.89210937 38.7853125 52.77640625 39.414375 53.6875 40.0625 C54.45449219 40.61035156 55.22148437 41.15820312 56.01171875 41.72265625 C58.06976496 43.16031887 58.06976496 43.16031887 61 44 C61 44.66 61 45.32 61 46 C61.78375 46.268125 62.5675 46.53625 63.375 46.8125 C66 48 66 48 68 51 C63.03967491 49.33677463 58.98868921 46.52737247 54.6875 43.625 C53.89641846 43.09406738 53.10533691 42.56313477 52.2902832 42.01611328 C44.95403369 37.04816705 37.8557716 31.7962512 30.83007812 26.40087891 C29.10832765 25.0829221 27.37671569 23.77944764 25.640625 22.48046875 C19.49466767 17.85731317 13.57455201 13.02044967 7.75 8 C7.09314209 7.43547119 6.43628418 6.87094238 5.75952148 6.28930664 C1.12461917 2.24923834 1.12461917 2.24923834 0 0 Z " fill="#FCC15E" transform="translate(181,875)"/>
<path d="M0 0 C9.78115378 -0.25469912 19.3449333 0.54585342 29.0625 1.5 C31.30474744 1.71547557 33.54713651 1.92935961 35.78965759 2.14196777 C37.80023453 2.33329008 39.81040901 2.528828 41.82055664 2.72460938 C44.96624362 3.04314645 44.96624362 3.04314645 48 3 C48 3.66 48 4.32 48 5 C36.14161785 5.33988993 24.546459 4.96324001 12.75 3.625 C11.02740967 3.43587036 11.02740967 3.43587036 9.27001953 3.24291992 C8.20638184 3.11377197 7.14274414 2.98462402 6.046875 2.8515625 C5.09651367 2.73635254 4.14615234 2.62114258 3.16699219 2.50244141 C2.45188477 2.33663574 1.73677734 2.17083008 1 2 C0.67 1.34 0.34 0.68 0 0 Z " fill="#FEC35F" transform="translate(445,997)"/>
<path d="M0 0 C1.63129887 4.06285757 0.29968777 7.20102184 -0.9375 11.25 C-1.31777344 12.51328125 -1.69804688 13.7765625 -2.08984375 15.078125 C-2.39019531 16.04234375 -2.69054687 17.0065625 -3 18 C-1.89785156 17.97679687 -0.79570313 17.95359375 0.33984375 17.9296875 C11.05817467 17.7774182 21.39046178 18.49586294 32 20 C32 20.33 32 20.66 32 21 C13.685 20.505 13.685 20.505 -5 20 C-3.7059093 12.88250114 -2.46968081 6.6681382 0 0 Z " fill="#F8EB93" transform="translate(662,431)"/>
<path d="M0 0 C-0.33 2.31 -0.66 4.62 -1 7 C-1.99 6.34 -2.98 5.68 -4 5 C-11.18302335 3.42380247 -18.76724107 3.95215454 -26.06640625 4.12695312 C-27.34451172 4.14338867 -27.34451172 4.14338867 -28.6484375 4.16015625 C-29.79578369 4.18541382 -29.79578369 4.18541382 -30.96630859 4.21118164 C-33 4 -33 4 -36 2 C-35.24380371 1.97494385 -34.48760742 1.9498877 -33.70849609 1.92407227 C-30.26384541 1.80763114 -26.81943592 1.68512338 -23.375 1.5625 C-21.59029297 1.50352539 -21.59029297 1.50352539 -19.76953125 1.44335938 C-18.61582031 1.40146484 -17.46210938 1.35957031 -16.2734375 1.31640625 C-15.21560059 1.27974854 -14.15776367 1.24309082 -13.06787109 1.20532227 C-8.63754934 0.90881577 -4.45458608 0 0 0 Z " fill="#EBDB8E" transform="translate(359,558)"/>
<path d="M0 0 C1.26480127 3.7944038 0.51876998 5.33505215 -0.65234375 9.12890625 C-1.01650391 10.32837891 -1.38066406 11.52785156 -1.75585938 12.76367188 C-2.14580078 14.01728516 -2.53574219 15.27089844 -2.9375 16.5625 C-3.69884835 19.04228403 -4.45807547 21.52272066 -5.21484375 24.00390625 C-5.55636475 25.10549072 -5.89788574 26.2070752 -6.24975586 27.34204102 C-7.09054971 29.86049658 -7.09054971 29.86049658 -7 32 C-3.37 32 0.26 32 4 32 C0.7188698 34.18742014 -1.33084356 34.54442806 -5.1875 35.125 C-6.81751953 35.37636719 -6.81751953 35.37636719 -8.48046875 35.6328125 C-9.31191406 35.75398438 -10.14335937 35.87515625 -11 36 C-9.15469153 27.82791961 -6.80309528 19.8272538 -4.375 11.8125 C-4.06167725 10.772146 -3.74835449 9.73179199 -3.42553711 8.65991211 C-3.12784424 7.68546143 -2.83015137 6.71101074 -2.5234375 5.70703125 C-2.25450684 4.8250708 -1.98557617 3.94311035 -1.70849609 3.03442383 C-1 1 -1 1 0 0 Z " fill="#F4E898" transform="translate(449,443)"/>
<path d="M0 0 C2.47960136 0.14024219 4.95852402 0.2869185 7.4375 0.4375 C8.14455078 0.47681641 8.85160156 0.51613281 9.58007812 0.55664062 C14.88671875 0.88671875 14.88671875 0.88671875 16 2 C18.51859228 2.5619518 21.02873303 3.07976773 23.5625 3.5625 C24.27341797 3.70107422 24.98433594 3.83964844 25.71679688 3.98242188 C27.47719932 4.32505054 29.23851797 4.66296553 31 5 C31 5.33 31 5.66 31 6 C23.89583925 6.25784694 17.38527162 5.58387684 10.4375 4.125 C9.53708984 3.95097656 8.63667969 3.77695312 7.70898438 3.59765625 C2.80026778 2.59738947 2.80026778 2.59738947 1 2 C0.67 1.34 0.34 0.68 0 0 Z " fill="#FEC35E" transform="translate(412,991)"/>
<path d="M0 0 C4.16932012 1.96742283 7.52477153 4.59072141 11.125 7.4375 C11.75792969 7.92798828 12.39085937 8.41847656 13.04296875 8.92382812 C13.65011719 9.40142578 14.25726562 9.87902344 14.8828125 10.37109375 C15.70869873 11.0196936 15.70869873 11.0196936 16.55126953 11.68139648 C18 13 18 13 20 16 C14.70542296 14.80872017 11.76473635 12.25671915 7.8984375 8.671875 C5.94185392 6.83685553 5.94185392 6.83685553 3.0625 5.3125 C1 4 1 4 0.1875 1.8125 C0.125625 1.214375 0.06375 0.61625 0 0 Z " fill="#FCBB58" transform="translate(824,120)"/>
<path d="M0 0 C0.33 0 0.66 0 1 0 C0.38277416 9.56700056 -1.8201341 18.69247957 -4 28 C-4.66 27.34 -5.32 26.68 -6 26 C-6 24.68 -6 23.36 -6 22 C-5.34 22 -4.68 22 -4 22 C-4.33 20.02 -4.66 18.04 -5 16 C-4.34 16 -3.68 16 -3 16 C-2.87625 14.845 -2.7525 13.69 -2.625 12.5 C-2.09721115 8.21649625 -1.11601963 4.16647328 0 0 Z " fill="#F9F099" transform="translate(548,655)"/>
<path d="M0 0 C13.38440111 1.29526462 13.38440111 1.29526462 19 3 C19.33 3.66 19.66 4.32 20 5 C13.43429568 5.44766166 7.21488992 4.13698108 1 2 C0.67 1.34 0.34 0.68 0 0 Z " fill="#FEC35E" transform="translate(390,986)"/>
<path d="M0 0 C0.33 0 0.66 0 1 0 C1 8.25 1 16.5 1 25 C0.01 25 -0.98 25 -2 25 C-2 21.37 -2 17.74 -2 14 C-1.67 14 -1.34 14 -1 14 C-0.67 9.38 -0.34 4.76 0 0 Z " fill="#382711" transform="translate(534,756)"/>
<path d="M0 0 C-0.33 2.31 -0.66 4.62 -1 7 C-1.99 6.34 -2.98 5.68 -4 5 C-5.9896995 4.60986284 -7.99019869 4.26797351 -10 4 C-10 3.01 -10 2.02 -10 1 C-6.56484998 0.37542727 -3.50935186 0 0 0 Z " fill="#F3D682" transform="translate(359,558)"/>
<path d="M0 0 C0.66 0 1.32 0 2 0 C6 4.47058824 6 4.47058824 6 7 C6.66 7 7.32 7 8 7 C9.5078125 8.75 9.5078125 8.75 11.125 11 C11.66382813 11.7425 12.20265625 12.485 12.7578125 13.25 C13.16773438 13.8275 13.57765625 14.405 14 15 C13.67 15.66 13.34 16.32 13 17 C11.58155991 15.43910974 10.16532975 13.8762111 8.75 12.3125 C7.96109375 11.44238281 7.1721875 10.57226562 6.359375 9.67578125 C0 2.46357616 0 2.46357616 0 0 Z " fill="#FCC35F" transform="translate(122,812)"/>
<path d="M0 0 C0.33 0.66 0.66 1.32 1 2 C4.63 2 8.26 2 12 2 C8.7188698 4.18742014 6.66915644 4.54442806 2.8125 5.125 C1.72582031 5.29257812 0.63914062 5.46015625 -0.48046875 5.6328125 C-1.31191406 5.75398438 -2.14335937 5.87515625 -3 6 C-2.625 3.5625 -2.625 3.5625 -2 1 C-1.34 0.67 -0.68 0.34 0 0 Z " fill="#F9E38E" transform="translate(441,473)"/>
<path d="M0 0 C6.06892629 -0.25287193 11.16200408 0.30167391 17 2 C16.67 2.66 16.34 3.32 16 4 C10.39538469 3.57910004 5.27913453 3.08386889 0 1 C0 0.67 0 0.34 0 0 Z " fill="#FEC361" transform="translate(594,21)"/>
<path d="M0 0 C1.21405922 3.49551279 0.777272 5.69093297 -0.3125 9.1875 C-0.57675781 10.06792969 -0.84101562 10.94835937 -1.11328125 11.85546875 C-2 14 -2 14 -4 15 C-3.34 10.71 -2.68 6.42 -2 2 C-1.34 2 -0.68 2 0 2 C0 1.34 0 0.68 0 0 Z " fill="#F8DF84" transform="translate(609,407)"/>
<path d="M0 0 C0.33 0.99 0.66 1.98 1 3 C-1.31 2.67 -3.62 2.34 -6 2 C-6 2.66 -6 3.32 -6 4 C-7.9375 3.625 -7.9375 3.625 -10 3 C-10.33 2.34 -10.66 1.68 -11 1 C-7.26513121 0.4254048 -3.78706732 0 0 0 Z " fill="#352610" transform="translate(546,460)"/>
<path d="M0 0 C0.33 0 0.66 0 1 0 C0.48517081 5.852795 -0.45357192 11.3297637 -2 17 C-2.33 17 -2.66 17 -3 17 C-3 13.04 -3 9.08 -3 5 C-2.34 4.67 -1.68 4.34 -1 4 C-0.34786708 1.97536745 -0.34786708 1.97536745 0 0 Z " fill="#F7C464" transform="translate(706,264)"/>
<path d="M0 0 C0.66 0 1.32 0 2 0 C3.45606519 4.52092968 2.27032841 7.51648796 1 12 C0.34 11.34 -0.32 10.68 -1 10 C-1 8.68 -1 7.36 -1 6 C-0.34 6 0.32 6 1 6 C0.67 4.02 0.34 2.04 0 0 Z " fill="#FAE087" transform="translate(543,671)"/>
<path d="M0 0 C0.33 0 0.66 0 1 0 C2.12029814 5.48946087 1.79217969 8.83430559 0 14 C-0.33 14 -0.66 14 -1 14 C-1.02705729 12.22925083 -1.04642195 10.45838289 -1.0625 8.6875 C-1.07410156 7.70136719 -1.08570313 6.71523438 -1.09765625 5.69921875 C-1 3 -1 3 0 0 Z " fill="#F8D980" transform="translate(556,613)"/>
<path d="M0 0 C1.18771723 3.42943519 0.80226223 5.37784675 -0.4375 8.75 C-0.86869141 9.94882812 -0.86869141 9.94882812 -1.30859375 11.171875 C-1.65083984 12.07679688 -1.65083984 12.07679688 -2 13 C-3.1700097 9.08263419 -2.69584017 6.02040985 -2 2 C-1.34 2 -0.68 2 0 2 C0 1.34 0 0.68 0 0 Z " fill="#F9E58D" transform="translate(616,383)"/>
<path d="M0 0 C0.99 0 1.98 0 3 0 C2.88541307 1.43836751 2.75790884 2.87570966 2.625 4.3125 C2.55539062 5.11300781 2.48578125 5.91351562 2.4140625 6.73828125 C2 9 2 9 0 12 C0 8.04 0 4.08 0 0 Z " fill="#37290F" transform="translate(552,642)"/>
<path d="M0 0 C2 3 2 3 1.7578125 5.48046875 C1.54898438 6.37378906 1.34015625 7.26710938 1.125 8.1875 C0.92132812 9.08855469 0.71765625 9.98960937 0.5078125 10.91796875 C0.34023438 11.60503906 0.17265625 12.29210937 0 13 C-0.96661363 9.87819599 -0.98988909 7.47916205 -0.5625 4.25 C-0.46066406 3.45078125 -0.35882812 2.6515625 -0.25390625 1.828125 C-0.17011719 1.22484375 -0.08632813 0.6215625 0 0 Z " fill="#35250E" transform="translate(602,435)"/>
<path d="M0 0 C0.66 1.32 1.32 2.64 2 4 C1.34 3.67 0.68 3.34 0 3 C0 2.01 0 1.02 0 0 Z " fill="#FACE72" transform="translate(48,693)"/>
<path d="M0 0 C4 1 4 1 4 1 Z " fill="#FBC76A" transform="translate(628,991)"/>
<path d="M0 0 C0.99 0 1.98 0 3 0 C2.67 0.66 2.34 1.32 2 2 C1.34 1.34 0.68 0.68 0 0 Z " fill="#FCCE71" transform="translate(392,989)"/>
<path d="M0 0 C1 4 1 4 1 4 Z " fill="#FFD57A" transform="translate(16,440)"/>
<path d="M0 0 C0.99 0.495 0.99 0.495 2 1 C1.34 1.66 0.68 2.32 0 3 C0 2.01 0 1.02 0 0 Z " fill="#F8CE77" transform="translate(88,240)"/>
<path d="M0 0 C0.66 0.66 1.32 1.32 2 2 C1.34 2 0.68 2 0 2 C0 1.34 0 0.68 0 0 Z " fill="#F8C96C" transform="translate(324,966)"/>
<path d="M0 0 C0.99 0.495 0.99 0.495 2 1 C1.01 1.495 1.01 1.495 0 2 C0 1.34 0 0.68 0 0 Z " fill="#F4C76E" transform="translate(88,773)"/>
<path d="" fill="#FDC568" transform="translate(0,0)"/>
<path d="" fill="#FFD67A" transform="translate(0,0)"/>
<path d="" fill="#FED577" transform="translate(0,0)"/>
<path d="" fill="#FFD57B" transform="translate(0,0)"/>
<path d="" fill="#FDC669" transform="translate(0,0)"/>
<path d="M0 0 C0.99 0.495 0.99 0.495 2 1 C1.01 1.495 1.01 1.495 0 2 C0 1.34 0 0.68 0 0 Z " fill="#F4CC73" transform="translate(161,152)"/>
<path d="M0 0 C3 1 3 1 3 1 Z " fill="#F9CF74" transform="translate(288,64)"/>
<path d="M0 0 C3 1 3 1 3 1 Z " fill="#FFD375" transform="translate(472,13)"/>
<path d="M0 0 C2 1 2 1 2 1 Z " fill="#FECC70" transform="translate(443,999)"/>
<path d="M0 0 C2 1 2 1 2 1 Z " fill="#F8C466" transform="translate(683,975)"/>
<path d="M0 0 C2 1 2 1 2 1 Z " fill="#F8C265" transform="translate(724,958)"/>
<path d="M0 0 C2 1 2 1 2 1 Z " fill="#F7C96C" transform="translate(304,958)"/>
<path d="" fill="#F5C569" transform="translate(0,0)"/>
<path d="" fill="#F5C76B" transform="translate(0,0)"/>
<path d="M0 0 C2 1 2 1 2 1 Z " fill="#F6C86C" transform="translate(113,805)"/>
<path d="" fill="#F4C66B" transform="translate(0,0)"/>
<path d="M0 0 C2 1 2 1 2 1 Z " fill="#F6CA6F" transform="translate(91,774)"/>
<path d="" fill="#F7CC70" transform="translate(0,0)"/>
<path d="" fill="#FACD70" transform="translate(0,0)"/>
<path d="" fill="#FBCD70" transform="translate(0,0)"/>
<path d="" fill="#FACD72" transform="translate(0,0)"/>
<path d="" fill="#FACC70" transform="translate(0,0)"/>
<path d="" fill="#FACE71" transform="translate(0,0)"/>
<path d="" fill="#FDD377" transform="translate(0,0)"/>
<path d="" fill="#FED477" transform="translate(0,0)"/>
<path d="" fill="#FDD57A" transform="translate(0,0)"/>
<path d="" fill="#FFD67B" transform="translate(0,0)"/>
<path d="" fill="#FFD475" transform="translate(0,0)"/>
<path d="" fill="#FEC769" transform="translate(0,0)"/>
<path d="" fill="#FFD679" transform="translate(0,0)"/>
<path d="" fill="#FED97C" transform="translate(0,0)"/>
<path d="M0 0 C2 1 2 1 2 1 Z " fill="#FED67B" transform="translate(26,384)"/>
<path d="" fill="#F9D27B" transform="translate(0,0)"/>
<path d="" fill="#F7CE75" transform="translate(0,0)"/>
<path d="" fill="#F2BC62" transform="translate(0,0)"/>
<path d="" fill="#EFB85E" transform="translate(0,0)"/>
<path d="M0 0 C2 1 2 1 2 1 Z " fill="#F5CC72" transform="translate(208,112)"/>
<path d="M0 0 C2 1 2 1 2 1 Z " fill="#F8CB6D" transform="translate(654,32)"/>
<path d="" fill="#FFCE6F" transform="translate(0,0)"/>
<path d="" fill="#FFCD6D" transform="translate(0,0)"/>
<path d="" fill="#FDCC6B" transform="translate(0,0)"/>
<path d="" fill="#FECB6A" transform="translate(0,0)"/>
<path d="" fill="#FCC66B" transform="translate(0,0)"/>
<path d="" fill="#FFCC6D" transform="translate(0,0)"/>
<path d="" fill="#FECE6F" transform="translate(0,0)"/>
<path d="" fill="#FDCF6F" transform="translate(0,0)"/>
<path d="" fill="#FFD072" transform="translate(0,0)"/>
<path d="" fill="#FFCE70" transform="translate(0,0)"/>
<path d="" fill="#FDCA6E" transform="translate(0,0)"/>
<path d="" fill="#FDD072" transform="translate(0,0)"/>
<path d="" fill="#FFCD6E" transform="translate(0,0)"/>
<path d="" fill="#FFCE6D" transform="translate(0,0)"/>
<path d="" fill="#FECE72" transform="translate(0,0)"/>
<path d="" fill="#FFCF6F" transform="translate(0,0)"/>
<path d="" fill="#FCCE70" transform="translate(0,0)"/>
<path d="" fill="#1E1500" transform="translate(0,0)"/>
<path d="" fill="#FDCE72" transform="translate(0,0)"/>
<path d="" fill="#FACC6E" transform="translate(0,0)"/>
<path d="" fill="#FECE70" transform="translate(0,0)"/>
<path d="" fill="#F9CA6D" transform="translate(0,0)"/>
<path d="" fill="#FACF71" transform="translate(0,0)"/>
<path d="" fill="#F9C669" transform="translate(0,0)"/>
<path d="" fill="#FCCC6F" transform="translate(0,0)"/>
<path d="" fill="#F8CA6D" transform="translate(0,0)"/>
<path d="" fill="#F6C468" transform="translate(0,0)"/>
<path d="" fill="#FBCB6C" transform="translate(0,0)"/>
<path d="" fill="#F9CB6C" transform="translate(0,0)"/>
<path d="" fill="#F9C566" transform="translate(0,0)"/>
<path d="" fill="#F8C76C" transform="translate(0,0)"/>
<path d="" fill="#F8C86B" transform="translate(0,0)"/>
<path d="" fill="#F7C86B" transform="translate(0,0)"/>
<path d="" fill="#F7C86B" transform="translate(0,0)"/>
<path d="" fill="#F8C96A" transform="translate(0,0)"/>
<path d="" fill="#F8C162" transform="translate(0,0)"/>
<path d="" fill="#F6C86B" transform="translate(0,0)"/>
<path d="" fill="#2E2408" transform="translate(0,0)"/>
<path d="" fill="#332508" transform="translate(0,0)"/>
<path d="" fill="#F5C469" transform="translate(0,0)"/>
<path d="" fill="#F4C367" transform="translate(0,0)"/>
<path d="" fill="#F6C668" transform="translate(0,0)"/>
<path d="" fill="#F5BF61" transform="translate(0,0)"/>
<path d="" fill="#F5C66C" transform="translate(0,0)"/>
<path d="" fill="#F5C86A" transform="translate(0,0)"/>
<path d="" fill="#F5C568" transform="translate(0,0)"/>
<path d="" fill="#F5C568" transform="translate(0,0)"/>
<path d="" fill="#F6C76A" transform="translate(0,0)"/>
<path d="" fill="#F3C267" transform="translate(0,0)"/>
<path d="" fill="#F4C569" transform="translate(0,0)"/>
<path d="" fill="#F3C669" transform="translate(0,0)"/>
<path d="" fill="#F3C66C" transform="translate(0,0)"/>
<path d="" fill="#F3C668" transform="translate(0,0)"/>
<path d="" fill="#F2C56A" transform="translate(0,0)"/>
<path d="" fill="#F2C568" transform="translate(0,0)"/>
<path d="" fill="#F5C96E" transform="translate(0,0)"/>
<path d="" fill="#F5C86A" transform="translate(0,0)"/>
<path d="" fill="#F6C66C" transform="translate(0,0)"/>
<path d="" fill="#F8CB70" transform="translate(0,0)"/>
<path d="" fill="#F6CA6D" transform="translate(0,0)"/>
<path d="" fill="#F8C86D" transform="translate(0,0)"/>
<path d="" fill="#F7CA6E" transform="translate(0,0)"/>
<path d="" fill="#F8CA70" transform="translate(0,0)"/>
<path d="" fill="#F8CC72" transform="translate(0,0)"/>
<path d="" fill="#F8CA6E" transform="translate(0,0)"/>
<path d="" fill="#F5BF64" transform="translate(0,0)"/>
<path d="" fill="#F7CA6F" transform="translate(0,0)"/>
<path d="" fill="#F9CC70" transform="translate(0,0)"/>
<path d="" fill="#FCD172" transform="translate(0,0)"/>
<path d="" fill="#FCC669" transform="translate(0,0)"/>
<path d="" fill="#FBD176" transform="translate(0,0)"/>
<path d="" fill="#FDC667" transform="translate(0,0)"/>
<path d="" fill="#FED176" transform="translate(0,0)"/>
<path d="" fill="#FDD174" transform="translate(0,0)"/>
<path d="" fill="#FAD276" transform="translate(0,0)"/>
<path d="" fill="#FED476" transform="translate(0,0)"/>
<path d="" fill="#FFD276" transform="translate(0,0)"/>
<path d="" fill="#FCC368" transform="translate(0,0)"/>
<path d="" fill="#F9D275" transform="translate(0,0)"/>
<path d="" fill="#FFC767" transform="translate(0,0)"/>
<path d="" fill="#FFD475" transform="translate(0,0)"/>
<path d="" fill="#FEC568" transform="translate(0,0)"/>
<path d="" fill="#FFD478" transform="translate(0,0)"/>
<path d="" fill="#FFC769" transform="translate(0,0)"/>
<path d="" fill="#FED378" transform="translate(0,0)"/>
<path d="" fill="#FED177" transform="translate(0,0)"/>
<path d="" fill="#FED477" transform="translate(0,0)"/>
<path d="" fill="#FEC76B" transform="translate(0,0)"/>
<path d="" fill="#FED678" transform="translate(0,0)"/>
<path d="" fill="#FED578" transform="translate(0,0)"/>
<path d="" fill="#FFD478" transform="translate(0,0)"/>
<path d="" fill="#FDC769" transform="translate(0,0)"/>
<path d="" fill="#FDD578" transform="translate(0,0)"/>
<path d="" fill="#FFD479" transform="translate(0,0)"/>
<path d="" fill="#FFD778" transform="translate(0,0)"/>
<path d="" fill="#FFC76A" transform="translate(0,0)"/>
<path d="" fill="#FFD477" transform="translate(0,0)"/>
<path d="" fill="#FFD678" transform="translate(0,0)"/>
<path d="" fill="#FFC769" transform="translate(0,0)"/>
<path d="" fill="#FFC76A" transform="translate(0,0)"/>
<path d="" fill="#FFD476" transform="translate(0,0)"/>
<path d="" fill="#FFD578" transform="translate(0,0)"/>
<path d="" fill="#FFC96A" transform="translate(0,0)"/>
<path d="" fill="#FFC86B" transform="translate(0,0)"/>
<path d="" fill="#FFC96A" transform="translate(0,0)"/>
<path d="" fill="#FFD67A" transform="translate(0,0)"/>
<path d="" fill="#FECA6B" transform="translate(0,0)"/>
<path d="" fill="#FFD578" transform="translate(0,0)"/>
<path d="" fill="#FFC769" transform="translate(0,0)"/>
<path d="" fill="#FFD77C" transform="translate(0,0)"/>
<path d="" fill="#FCD67D" transform="translate(0,0)"/>
<path d="" fill="#FEC76C" transform="translate(0,0)"/>
<path d="" fill="#FCC46A" transform="translate(0,0)"/>
<path d="" fill="#FEC56A" transform="translate(0,0)"/>
<path d="" fill="#FED67E" transform="translate(0,0)"/>
<path d="" fill="#FFD679" transform="translate(0,0)"/>
<path d="" fill="#FDC668" transform="translate(0,0)"/>
<path d="" fill="#FBC367" transform="translate(0,0)"/>
<path d="" fill="#FFD67E" transform="translate(0,0)"/>
<path d="" fill="#FDD57B" transform="translate(0,0)"/>
<path d="" fill="#FBC467" transform="translate(0,0)"/>
<path d="" fill="#FFD67D" transform="translate(0,0)"/>
<path d="" fill="#FED67A" transform="translate(0,0)"/>
<path d="" fill="#FBD37B" transform="translate(0,0)"/>
<path d="" fill="#FAC467" transform="translate(0,0)"/>
<path d="" fill="#FAC468" transform="translate(0,0)"/>
<path d="" fill="#FCD37A" transform="translate(0,0)"/>
<path d="" fill="#FCD279" transform="translate(0,0)"/>
<path d="" fill="#FBD178" transform="translate(0,0)"/>
<path d="" fill="#FCD47A" transform="translate(0,0)"/>
<path d="" fill="#FBC468" transform="translate(0,0)"/>
<path d="" fill="#F7BF63" transform="translate(0,0)"/>
<path d="" fill="#FAD17C" transform="translate(0,0)"/>
<path d="" fill="#F9D079" transform="translate(0,0)"/>
<path d="" fill="#F4BE64" transform="translate(0,0)"/>
<path d="" fill="#F7CD74" transform="translate(0,0)"/>
<path d="" fill="#F6CF79" transform="translate(0,0)"/>
<path d="" fill="#F8CE76" transform="translate(0,0)"/>
<path d="" fill="#F3BD61" transform="translate(0,0)"/>
<path d="" fill="#F6CC75" transform="translate(0,0)"/>
<path d="" fill="#F9CC73" transform="translate(0,0)"/>
<path d="" fill="#F5CE77" transform="translate(0,0)"/>
<path d="" fill="#F4CB72" transform="translate(0,0)"/>
<path d="" fill="#EFB75E" transform="translate(0,0)"/>
<path d="" fill="#ECB85C" transform="translate(0,0)"/>
<path d="" fill="#F4CB71" transform="translate(0,0)"/>
<path d="" fill="#F1BB5C" transform="translate(0,0)"/>
<path d="" fill="#F5CA71" transform="translate(0,0)"/>
<path d="" fill="#EEB95E" transform="translate(0,0)"/>
<path d="" fill="#F3CA71" transform="translate(0,0)"/>
<path d="" fill="#F6CC72" transform="translate(0,0)"/>
<path d="" fill="#F5CB71" transform="translate(0,0)"/>
<path d="" fill="#EFBA60" transform="translate(0,0)"/>
<path d="" fill="#F0C873" transform="translate(0,0)"/>
<path d="" fill="#F2CC75" transform="translate(0,0)"/>
<path d="" fill="#F0B95D" transform="translate(0,0)"/>
<path d="" fill="#EFBB5E" transform="translate(0,0)"/>
<path d="" fill="#EEBA60" transform="translate(0,0)"/>
<path d="" fill="#F2BA5E" transform="translate(0,0)"/>
<path d="" fill="#F4CB70" transform="translate(0,0)"/>
<path d="" fill="#F6CC72" transform="translate(0,0)"/>
<path d="" fill="#F3C96F" transform="translate(0,0)"/>
<path d="" fill="#F3CB73" transform="translate(0,0)"/>
<path d="" fill="#F5CA70" transform="translate(0,0)"/>
<path d="" fill="#F5CB6F" transform="translate(0,0)"/>
<path d="" fill="#F6CA6F" transform="translate(0,0)"/>
<path d="" fill="#F4CB70" transform="translate(0,0)"/>
<path d="" fill="#EDBB60" transform="translate(0,0)"/>
<path d="" fill="#F5C971" transform="translate(0,0)"/>
<path d="" fill="#EEBC5F" transform="translate(0,0)"/>
<path d="" fill="#F2BD60" transform="translate(0,0)"/>
<path d="" fill="#F5CB70" transform="translate(0,0)"/>
<path d="" fill="#F1BE62" transform="translate(0,0)"/>
<path d="" fill="#F5CC71" transform="translate(0,0)"/>
<path d="" fill="#4E3B12" transform="translate(0,0)"/>
<path d="" fill="#F6CC6F" transform="translate(0,0)"/>
<path d="" fill="#F9CC75" transform="translate(0,0)"/>
<path d="" fill="#F4BF61" transform="translate(0,0)"/>
<path d="" fill="#F6CD70" transform="translate(0,0)"/>
<path d="" fill="#F7CB70" transform="translate(0,0)"/>
<path d="" fill="#F6CC71" transform="translate(0,0)"/>
<path d="" fill="#F8CF73" transform="translate(0,0)"/>
<path d="" fill="#F8CF75" transform="translate(0,0)"/>
<path d="" fill="#FAD073" transform="translate(0,0)"/>
<path d="" fill="#FAD174" transform="translate(0,0)"/>
<path d="" fill="#FDD277" transform="translate(0,0)"/>
<path d="" fill="#F5C86D" transform="translate(0,0)"/>
<path d="" fill="#FBD277" transform="translate(0,0)"/>
<path d="" fill="#F9C66B" transform="translate(0,0)"/>
<path d="" fill="#FBC96B" transform="translate(0,0)"/>
<path d="" fill="#FBC96C" transform="translate(0,0)"/>
<path d="" fill="#FED678" transform="translate(0,0)"/>
<path d="" fill="#221A04" transform="translate(0,0)"/>
<path d="" fill="#FFD779" transform="translate(0,0)"/>
<path d="" fill="#FFCF6F" transform="translate(0,0)"/>
<path d="" fill="#FFD679" transform="translate(0,0)"/>
<path d="" fill="#FFD377" transform="translate(0,0)"/>
<path d="" fill="#191100" transform="translate(0,0)"/>
<path d="" fill="#FFD678" transform="translate(0,0)"/>
<path d="" fill="#FECE6E" transform="translate(0,0)"/>
<path d="" fill="#FFD87A" transform="translate(0,0)"/>
<path d="" fill="#FCCE70" transform="translate(0,0)"/>
<path d="" fill="#FFD577" transform="translate(0,0)"/>
<path d="" fill="#FFD779" transform="translate(0,0)"/>
<path d="" fill="#FFD477" transform="translate(0,0)"/>
<path d="" fill="#FED376" transform="translate(0,0)"/>
<path d="" fill="#FFD374" transform="translate(0,0)"/>
<path d="" fill="#FFD678" transform="translate(0,0)"/>
</svg>
